# xmcd
#
# Track frame offsets:
# 150
# 16066
# 32702
# 47465
# 62223
# 80235
# 97022
# 116465
# 133842
# 148702
# 168261
# 180783
# 201271
# 216505
# 228618
#
# Disc length: 3271 seconds
#
#
# Revision: 1
# Processed by: cddbd v1.5.2PL0 Copyright (c) Steve Scherf et al.
# Submitted via: MfcCDDB 1.28 
#
DISCID=d40cc50f
DTITLE=v-02-dancando vale - Recanto Serra
DYEAR=2000
DGENRE=Country
TTITLE0=Dobrado serrano
TTITLE1=luzes brilham
TTITLE2=dancando vale
TTITLE3=bombacha larga
TTITLE4=chegando melhor idade
TTITLE5=mexendo sax
TTITLE6=geschpenz
TTITLE7=sede grande
TTITLE8=vida artista
TTITLE9=rancheira saudade
TTITLE10=barco furado
TTITLE11=amor soprano
TTITLE12=kulta slhtig
TTITLE13=agora nunca
TTITLE14=beijos abracos
EXTD=
EXTT0=
EXTT1=
EXTT2=
EXTT3=
EXTT4=
EXTT5=
EXTT6=
EXTT7=
EXTT8=
EXTT9=
EXTT10=
EXTT11=
EXTT12=
EXTT13=
EXTT14=
PLAYORDER=
